<svg width="22" height="22" viewBox="0 0 22 22" fill="none" xmlns="http://www.w3.org/2000/svg">
<path d="M0.46967 20.4697C0.176777 20.7626 0.176777 21.2374 0.46967 21.5303C0.762563 21.8232 1.23744 21.8232 1.53033 21.5303L0.46967 20.4697ZM21.75 0.999999C21.75 0.585786 21.4142 0.249999 21 0.249999L14.25 0.25C13.8358 0.249999 13.5 0.585786 13.5 0.999999C13.5 1.41421 13.8358 1.75 14.25 1.75L20.25 1.75L20.25 7.75C20.25 8.16421 20.5858 8.5 21 8.5C21.4142 8.5 21.75 8.16421 21.75 7.75L21.75 0.999999ZM1.53033 21.5303L21.5303 1.53033L20.4697 0.469669L0.46967 20.4697L1.53033 21.5303Z" fill="black"/>
</svg>
