<svg width="80" height="24" viewBox="0 0 80 24" fill="none" xmlns="http://www.w3.org/2000/svg">
<path d="M69.8325 17.9097C44.3384 21.2175 21.6782 15.5481 0.501159 1.60409C2.63437 0.313512 3.87992 1.35223 4.87889 1.97159C12.6462 6.42455 21.1912 8.96126 29.6308 11.5584C41.7885 15.3207 54.1557 15.6003 66.7336 14.0785C67.2791 14.0465 67.7851 13.8272 68.964 13.4329C63.503 10.7429 57.207 11.1924 52.8058 7.54573C52.9775 7.23754 53.0873 6.82442 53.2587 6.51612C57.0866 7.26824 60.998 8.04253 64.8483 8.71213C68.6982 9.38162 72.4862 9.94622 76.3142 10.6983C79.117 11.2664 79.9361 12.8995 78.2741 15.1114C76.1636 18.0003 73.6174 20.508 71.2165 23.1428C70.9613 23.4288 70.6007 23.7752 70.2225 23.8516C69.2149 23.9376 68.2732 23.7758 67.2041 23.757C67.2568 22.8864 67.0802 21.8664 67.3613 21.145C67.7922 20.1981 68.5969 19.5274 69.8325 17.9097Z" fill="#F57C00"/>
</svg>
