<svg width="22" height="22" viewBox="0 0 22 22" fill="none" xmlns="http://www.w3.org/2000/svg">
<path d="M0.292893 20.2929C-0.0976311 20.6834 -0.0976311 21.3166 0.292893 21.7071C0.683418 22.0976 1.31658 22.0976 1.70711 21.7071L0.292893 20.2929ZM22 0.999998C22 0.447714 21.5523 -1.2621e-06 21 -1.51498e-06L12 -7.14193e-07C11.4477 -1.05137e-06 11 0.447714 11 0.999999C11 1.55228 11.4477 2 12 2L20 2L20 10C20 10.5523 20.4477 11 21 11C21.5523 11 22 10.5523 22 10L22 0.999998ZM1.70711 21.7071L21.7071 1.70711L20.2929 0.292892L0.292893 20.2929L1.70711 21.7071Z" fill="white"/>
</svg>
