<svg width="33" height="30" viewBox="0 0 33 30" fill="none" xmlns="http://www.w3.org/2000/svg">
<path d="M14.9725 28.7C15.383 29.1105 15.9347 29.3393 16.5135 29.3393C17.0854 29.3393 17.6507 29.1038 18.0544 28.7L30.1468 16.6077C31.9839 14.7706 32.9933 12.3279 33 9.73715C33 7.13968 31.9906 4.69698 30.1535 2.85991C28.3165 1.02284 25.8805 0.0134583 23.283 0.0134583C20.7327 0.0134583 18.3303 0.989193 16.5067 2.7657C14.6764 0.982464 12.2673 0 9.71024 0C7.11949 0 4.68352 1.00938 2.84645 2.83972C1.00938 4.6768 0 7.1195 0 9.71697C0 12.3077 1.01611 14.7504 2.85318 16.5875L14.9725 28.7ZM4.01733 4.0106C5.53813 2.4898 7.56362 1.64865 9.71696 1.64865C11.8703 1.64865 13.9025 2.4898 15.4301 4.01733L15.928 4.51529C16.0828 4.67007 16.2914 4.75754 16.5135 4.75754C16.7288 4.75754 16.9441 4.67007 17.0989 4.51529L17.5834 4.03079C19.1109 2.50326 21.1364 1.66211 23.2965 1.66211C25.4498 1.66211 27.4753 2.50326 28.9961 4.02406C30.5237 5.55159 31.3581 7.57708 31.3581 9.73043C31.3581 11.8838 30.5169 13.9093 28.9894 15.4368L16.8903 27.5359C16.6951 27.731 16.3385 27.731 16.1366 27.5359L4.02406 15.4233C2.49653 13.8958 1.65538 11.8703 1.65538 9.71697C1.65538 7.56362 2.49653 5.53813 4.01733 4.0106Z" fill="#EA7A93"/>
</svg>
